<svg id="Layer_1" data-name="Layer 1" xmlns="http://www.w3.org/2000/svg" viewBox="0 0 500 500"><defs><style>.cls-1{fill:#71b08b;}.cls-2{fill:#ac4027;}.cls-3{fill:#2c0218;}.cls-4{fill:#92271d;}.cls-5{fill:#cd6531;}.cls-6{fill:#afdfa1;}</style></defs><path class="cls-1" d="M186.06,216.28H93.7v27.35H23.38s3.21,141.83,12.05,160.58,97.95,75,111.7,70.16,87.69-57.08,93.32-76.38S252.5,244.42,252.5,244.42l-68.34-3.21Z"/><path class="cls-2" d="M137.5,16.1C106.62,9.44,90.89,30.56,94.1,89.27s29.73,120.59,29.73,120.59l30.56,3.36S177.7,126.57,177.7,78.81,158.23,20.58,137.5,16.1Z"/><path class="cls-3" d="M137.5,8.84c-35.36-1-56.29,22.52-53.08,70s19.31,131.05,19.31,131.05H137.5S124.3,201,110.82,152,87.68,21.72,133.5,23.35s41,67.55,23.31,143.34c-5,21.17-11.26,43.2-11.26,43.2h18s18.94-85.22,22.15-133.46S165.65,9.63,137.5,8.84Z"/><path class="cls-4" d="M135.08,33.78S111,28.15,110.19,79.6s16.09,123.79,16.09,123.79l11.26,6.43s-12.88-92.44-13.67-130.26S135.08,33.78,135.08,33.78Z"/><path class="cls-3" d="M178.53,307.92s-6.42,108.54-48.24,95.1c-39.4-12.68-58.71-194-57.08-198.79s116.58-3.21,122.21-.8-12.89,64.34-12.89,64.34,3.21-35.8-1.62-42.22-71.55-7.65-74.76.4,13.67,116.58,23.31,138.3S160.81,381.1,178.53,307.92Z"/><path class="cls-3" d="M84.11,233.16H6.45A4.46,4.46,0,0,0,2,238c2.1,26,12.53,149.52,20.54,169.66C34.2,437,131.87,490.43,142.34,490.43s92.44-53.87,102.11-82.81c8.6-25.77,20.38-144,22.83-169.58a4.47,4.47,0,0,0-4.44-4.88H186l-3.53,34.57s4.84-11.26,27.35-12.88S241.2,273.24,238,321.12s-6.42,74.45-20.89,91.33-56.29,52.25-82,47.45-84.39-44.24-91.64-61.08-15.26-116.58-8-135S77.21,246.09,89.26,279,84.11,233.16,84.11,233.16Z"/><path class="cls-4" d="M42.64,335.28s3.22,47.44,10.47,61.08,58.27,54.7,89.23,54.66c24.14,0,64.33-38.61,64.33-38.61s-31.75,26-63.5,27.36c-27.35,1.19-68.42-30-80.43-46.62S42.64,335.28,42.64,335.28Z"/><path class="cls-5" d="M147.17,59.9c-9.27,0-20.13,2.42-16.09,44.63,4.2,44.12,23.31,45.67,30.56,0C168.38,62,159.62,60,147.17,59.9Z"/><path class="cls-5" d="M143.13,33.58c-8,.2-17.44,18.55-8,22,3.25,1.19,8,1,12,.67,6.65-.51,12.09-1.35,12.12-6.42C159.26,42.22,151.18,33.42,143.13,33.58Z"/><path class="cls-6" d="M139.88,269.24c3.09-8.25,33.06-7,35.8-.28,3.6,8.84-6.43,68.34-16.1,82.81S135.08,282.08,139.88,269.24Z"/><path class="cls-6" d="M140.63,228.72c-5.82,4.72-2.73,24.94,3.73,26.64,9.24,2.5,26.48,3.49,30.13-.91s5-22.52.15-25C168,226,147.1,223.53,140.63,228.72Z"/><path class="cls-6" d="M199,260.51s16.14-9.31,26.92,5.24,10.46,50.14,6.82,79.75S225.11,388,225.11,388s8.84-60.69,2.81-90.46S211.47,262.5,199,260.51Z"/><path class="cls-6" d="M62.35,257.54s-15.66-5.9-22.52,7.81,0,74,0,74S39,292.27,45.06,275,62.35,257.54,62.35,257.54Z"/><path class="cls-1" d="M300.1,26.24s-7.84,57.28-17.48,89.87-18.71,68.73-18.71,68.73l62.71,54.86v32.55l83.8,4.2V243.79s59.11-32.67,62.12-46.42-18.08-97-19.9-118.68S449,32.59,449,32.59,423.11,38.29,420.69,57s5.83,100.09,2.62,107.94-13.48,21.09-20.7,16.3-8.6-22.92-8.2-29.85-1.43-96-3.85-103.94-18.67-26.32-18.67-26.32-20.81,13-22.16,31S346.44,157.09,342,168s-16.17,17.48-20.89,6,4.36-74.16,3.73-94.06S328.45,31.08,300.1,26.24Z"/><path class="cls-2" d="M394.41,280.49H345.33s-21.72,119.79-24.1,150.36,29.73,52.4,61.92,43.48,33.77-49.9,33.77-49.9Z"/><path class="cls-3" d="M332.49,281.33s-21.72,131.84-23.31,159.19,20.61,50.06,61.92,50.66c38.61.55,56.29-23.31,54.66-50.66S404,281.33,404,281.33H371.89s13.68,4,21.73,56.28c6.93,45.19,16.09,101.32-.8,118.17-14.51,14.51-51.45,12.05-58.7-11.26s11.29-135,13.67-145.51c4-18.16,16.89-18.48,16.89-18.48Z"/><path class="cls-4" d="M376.69,310.26s18.47,61.92,17.68,110.16-15.26,53.08-22.52,53.87-22.51-5.63-22.51-5.63,19.3,8.29,31.35-35.36S376.69,310.26,376.69,310.26Z"/><path class="cls-3" d="M320.4,239.51,312,273a9.28,9.28,0,0,0,9,11.54H414a9.28,9.28,0,0,0,9.16-10.75l-5.51-34.28H386.32s18.47,8.84,16.89,22.51-49.83,15.26-65.13,5.63,4.84-28.14,4.84-28.14Z"/><path class="cls-3" d="M463.54,96.88c-8.05-35-6.42-78.45-6.42-78.45s-38.61,8.05-41.82,28.15.79,87.64.79,112.58-15.26,13.67-16.09,0,2.42-86.82-.8-112.58-27.31-33.77-27.31-33.77-26.56,7.25-27.47,31.35c-.59,15.78-3.09,75.59-3.88,105.32s-16.1,24.1-16.1,8.05,12.05-93.27,4-117.37-37-27.35-37-27.35,3.21,33.89-12.88,84.07c-12,37.46-23.86,70.16-29.1,84.32A18,18,0,0,0,251,196.77c10.59,17.49,42.81,57.2,116.5,57.24,78.21,0,114.2-35.47,127.09-52.72a17.56,17.56,0,0,0,1.86-17.8C488.16,165.54,469.72,123.8,463.54,96.88Zm-3.21,91.73c-3.21,13.44-40.2,34-88.44,36.39s-82.81-22.52-90.06-40.2,5.63-44.24,14.47-82,12.76-64.34,12.76-64.34a26,26,0,0,1,9.72,15.26c2.41,10.47-6.43,79.6-7.1,99.7s3.88,33,15.93,35.16,19.31-8.6,21.73-23.9,6.42-87.65,8-104.53A34.71,34.71,0,0,1,371.85,35.2s10.59,5.12,12.85,20.89,3.21,79.6,4,101.32,4.84,26.52,12.88,31.12,21.73.24,24.22-16.65-.91-91.65,0-108.53,16.77-20.1,16.77-20.1,0,22.51,2.42,49.83S463.54,175.17,460.33,188.61Z"/><path class="cls-4" d="M293.88,188.61s23.23,33.34,76.35,32.07S445,197.37,445,197.37,356.59,235.82,293.88,188.61Z"/><path class="cls-5" d="M362.22,290.17c-10.94-.32-13.72,22-12.05,28.54,1.23,4.87,5.67,5.35,10.27,6,5.15.75,10.5,1,11.45-5.43C373.48,308.68,368.84,290.36,362.22,290.17Z"/><path class="cls-5" d="M347.75,330.16c-3.05,4.6-7.85,54.31-4.83,68.14,3.33,15.34,23.5,25.93,28.34-4.83s3.49-56.93,0-62.12c-1.75-2.62-6.82-2.42-11.46-3C354.85,327.7,350.25,326.44,347.75,330.16Z"/><path class="cls-6" d="M371.89,41.62c-3-.19-7.85,7.54-9.63,14.79s4.12,10.86,11,10.86,10.43-4.2,8.92-9.95S376.69,41.94,371.89,41.62Z"/><path class="cls-6" d="M361.9,72.66c3.06-3,15.11-3.33,19,0,4.2,3.57,3.81,50.54,1.55,59.7-.92,3.69-4,15.06-12.25,15.06-8.6,0-12.05-12.8-12.81-19.3C355.88,115.47,358.34,76.23,361.9,72.66Z"/><path class="cls-6" d="M302.84,81.42s-6,28-11.77,48.84-11.14,41.5-6.94,53.08,18.71,20.49,18.71,20.49a48.56,48.56,0,0,1-13.28-28.34C287.46,157.41,304.62,89,302.84,81.42Z"/><path class="cls-6" d="M442.13,85s3,25.33,8.45,54.86,10.07,42.3,4.2,52.17-14.15,12.6-14.15,12.6,10.86-9.27,9.95-22.55S439.12,104,442.13,85Z"/></svg>