<svg id="Layer_1" data-name="Layer 1" xmlns="http://www.w3.org/2000/svg" viewBox="0 0 500 500"><defs><style>.cls-1{fill:#f87005;}.cls-2{fill:#90be0f;}.cls-3{fill:#2c0218;}.cls-4{fill:#92271d;}.cls-5{fill:#ac4027;}.cls-6{fill:#d4d109;}.cls-7{fill:#fec03d;}</style></defs><path class="cls-1" d="M411.76,50.31s-20-5.57-36.28,20.74-8.07,45-8.07,45,15.85,28.3,45.81,26.81,39.61-22.94,39.61-22.94L415.09,91.41Z"/><path class="cls-2" d="M64.92,411.58s-24.43-10-27.76-44.43-4.45-60-7.77-69.94S18.29,285,18.29,285s7.77-8.89,25.56-5.57,26.64,21.11,26.64,21.11,14.42-60,21.11-76.63S96,186.16,96,186.16l31.84,30.72,11.47-21.83,20,25.56a312,312,0,0,0,21.1-42.18,224.82,224.82,0,0,0,13.34-47.76l26.64,52.2,22.2-42.18,23.31,42.18L287,141.77s10,45.55,16.67,62.18a305.07,305.07,0,0,0,14.42,30.71l13.34-34,21.11,41.1,26.64-50L391.44,248l18.86-21.85,12.22,55.52,4.45,20s13.34-17.79,30-21.11,25.55,3.32,25.55,3.32-13.34,5.57-14.42,24.44-2.21,51.08-14.43,74.39-23.31,30-23.31,30Z"/><path class="cls-3" d="M247.06,92.49s-40.72,97-51.07,188.05,22.19,122.15,22.19,122.15H233s-15.54-28.89-19.24-85.87S244.08,159.9,244.08,159.9s30.34,77,28.13,153.22-14.79,89.57-14.79,89.57h16.29S300.35,357.51,292.2,282C286,224.14,247.06,92.49,247.06,92.49Z"/><path class="cls-4" d="M243.7,199.09S228.53,245.72,230,311.63s9.64,90.31,9.64,90.31H253s-7.4-32.58-11.84-97S243.7,199.09,243.7,199.09Z"/><path class="cls-3" d="M325.53,136.92c0,2.21,6.65,42.18-15.55,97s-32.58,100.7-30.34,127.34,11.1,41.47,11.1,41.47h20.74S294,393,297.43,345.7C301.13,293.88,333,216.16,333,216.16s22.2,57.73,21.48,116.24-9.63,71.81-9.63,71.81h17s14.8-48.12,8.15-105.14S325.53,136.92,325.53,136.92Z"/><path class="cls-3" d="M146.37,134s-39.23,111-40,182.85,27.39,89.57,27.39,89.57h17s-23.69-31.09-26.64-82.91,17-103.65,17-103.65S172.3,266.46,179,327.92s-11.1,79.21-11.1,79.21l18.5-.74s20-20,13.34-75.52S164.9,216.13,154.52,186.5,146.37,134,146.37,134Z"/><path class="cls-3" d="M390.65,169.5a102.3,102.3,0,0,0-28.88,39.23c-10.35,25.18-8.89,37-8.89,37L361,270.19a99.15,99.15,0,0,1,3.7-33.32c5.19-18.5,10.35-28.14,10.35-28.14s0,26.64,7.4,75.51-.75,71.82-6.66,89.56a147.64,147.64,0,0,1-14.05,30.35H381s19.24-28.89,20-77S390.65,222,388.42,201.3,390.65,169.5,390.65,169.5Z"/><path class="cls-4" d="M332.18,267.21s-11.1,29.62-13.34,73.3,3,61.46,3,61.46h11.84S319.59,321.27,332.18,267.21Z"/><path class="cls-4" d="M145.62,265s13.34,31.83,16.29,81.45.75,60,.75,60h-14.8S159,315.33,145.62,265Z"/><path class="cls-3" d="M187.1,111s27.38,29.63,32.58,60-12.59,68.12-12.59,68.12,4.44-21.49-1.5-53.32-11.1-47.38-11.1-47.38,3.7,14.05-8.89,43.68-11.84,57-7.4,73.31-12.59-9.64-16.29-31.09,11.85-47.38,20-69.57S187.1,111,187.1,111Z"/><path class="cls-3" d="M295.9,119.88s-28.13,26.64-30.34,54.78,8.15,43.68,8.15,43.68a141.55,141.55,0,0,1,2.2-35.54c3.7-20,8.89-28.88,8.89-28.88s3.7,19.24,11.85,56.27-4.08,75-4.08,75l25.56-50.64a202,202,0,0,0-14.8-55.52C290.74,149.44,295.9,119.88,295.9,119.88Z"/><path class="cls-3" d="M91.6,168.75s28.88,21.49,36.28,48.13-8.9,54.77-8.9,54.77,4.45-15.54-.74-38.48-15.55-36.28-15.55-36.28,1.5,14.05-8.89,46.63S75.31,308.68,82.7,345.67s35.54,60.72,35.54,60.72H99s-23.68-26.65-31.08-71.82,11.84-97.7,19.24-124.38S91.6,168.75,91.6,168.75Z"/><path class="cls-3" d="M421,207.24A61.38,61.38,0,0,0,391.4,248c-5.94,28.88,1.49,46.63,1.49,46.63s1.5-25.18,7.4-38.48,9.64-17.78,9.64-17.78,4.45,48.12,14.8,88.84-24.44,77-24.44,77l16.29.75s29.63-33.33,20.74-77.72S412.88,231.67,421,207.24Z"/><path class="cls-3" d="M498,293.88s-2.95-17.78-31.09-19.24-40.72,22.94-40.72,22.94l4.44,20a48.55,48.55,0,0,1,18.5-25.89c14.8-10.36,23.69-6.66,23.69-6.66s-9.64,3.7-10.35,25.19.74,46.63-13.34,73.3S416.55,405,416.55,405l28.88,5.94s20-9.64,23.69-48.12,1-57.9,8.89-67.37C485.44,286.45,498,293.88,498,293.88Z"/><path class="cls-3" d="M2,294.59s5.19-20,33.33-21.48,38.48,25.18,38.48,25.18l-4.44,20a48.55,48.55,0,0,0-18.5-25.89c-14.8-10.35-23.69-6.65-23.69-6.65s9.64,3.7,10.35,25.18-.74,46.63,13.34,73.3,32.58,21.49,32.58,21.49l-28.88,5.94s-20-9.64-23.69-48.13-1-57.9-8.89-67.36C14.59,287.2,2,294.59,2,294.59Z"/><path class="cls-3" d="M492.84,461.91H24.23V436A36.31,36.31,0,0,1,60.54,399.7h396A36.32,36.32,0,0,1,492.88,436v25.9Z"/><path class="cls-3" d="M364,117.47c-10.73-24-7.88-38.38-7.88-38.38s-17.24-1.8-22.33,15.85c-6.38,22.13,28.88,53.72,67.88,58.78C401.58,153.72,374.67,141.47,364,117.47Z"/><path class="cls-3" d="M421.47,85.16c2.24-3,4.51-8.17,3.94-16.9C424.36,52,415.9,38.09,415.9,38.09s-34.48,1.73-48.8,28.24.31,49.68.31,49.68-5.81-19.27,9-39.84,32-21.41,32-21.41,4.14,11.5.68,23.62a31.39,31.39,0,0,1-3.3,7.67c-17.81,4.54-30.34,19.27-30.34,19.27C415.19,90.26,437,117.51,437,117.51s-7.63,9.87-24.87,14.59c-20.37,5.57-37.74-7-37.74-7s14.05,19.61,40.52,20.63c25.62,1,45.95-24.54,45.95-24.54s-12-31.19-38.28-35.84A7.22,7.22,0,0,0,421.47,85.16Z"/><path class="cls-5" d="M352.71,418.81c0,3.46-4.55,6.27-10.18,6.27s-10.18-2.81-10.18-6.27,4.55-6.28,10.18-6.28S352.71,415.31,352.71,418.81Z"/><path class="cls-5" d="M330.31,429.29c0,2.65-3.46,4.79-7.73,4.79s-7.74-2.14-7.74-4.79,3.46-4.78,7.74-4.78S330.31,426.68,330.31,429.29Z"/><path class="cls-5" d="M305.88,409.91c0,2.65-3.46,4.79-7.74,4.79s-7.74-2.14-7.74-4.79,3.46-4.78,7.74-4.78S305.88,407.27,305.88,409.91Z"/><path class="cls-5" d="M375.82,428.24c0,2.65-3.46,4.79-7.73,4.79s-7.74-2.14-7.74-4.79,3.46-4.78,7.74-4.78S375.82,425.59,375.82,428.24Z"/><path class="cls-5" d="M372.36,409.91c0,1.87-2.41,3.4-5.39,3.4s-5.4-1.53-5.4-3.4,2.41-3.39,5.4-3.39S372.36,408.05,372.36,409.91Z"/><ellipse class="cls-5" cx="323.12" cy="410.46" rx="5.4" ry="3.39"/><path class="cls-5" d="M263.9,418.81c0,3.46-4.55,6.27-10.18,6.27s-10.19-2.81-10.19-6.27,4.55-6.28,10.19-6.28S263.9,415.31,263.9,418.81Z"/><path class="cls-5" d="M241.46,429.29c0,2.65-3.46,4.79-7.73,4.79s-7.74-2.14-7.74-4.79,3.46-4.78,7.74-4.78S241.46,426.68,241.46,429.29Z"/><path class="cls-5" d="M217,409.91c0,2.65-3.46,4.79-7.74,4.79s-7.74-2.14-7.74-4.79,3.47-4.78,7.74-4.78S217,407.27,217,409.91Z"/><path class="cls-5" d="M287,428.24c0,2.65-3.47,4.79-7.74,4.79s-7.74-2.14-7.74-4.79,3.46-4.78,7.74-4.78S287,425.59,287,428.24Z"/><path class="cls-5" d="M283.55,409.91c0,1.87-2.41,3.4-5.4,3.4s-5.39-1.53-5.39-3.4,2.4-3.39,5.39-3.39S283.55,408.05,283.55,409.91Z"/><ellipse class="cls-5" cx="234.27" cy="410.46" rx="5.4" ry="3.39"/><path class="cls-5" d="M175.63,418.81c0,3.46-4.55,6.27-10.19,6.27s-10.18-2.81-10.18-6.27,4.55-6.28,10.18-6.28S175.63,415.31,175.63,418.81Z"/><path class="cls-5" d="M153.19,429.29c0,2.65-3.46,4.79-7.74,4.79s-7.73-2.14-7.73-4.79,3.46-4.78,7.73-4.78S153.19,426.68,153.19,429.29Z"/><path class="cls-5" d="M128.76,409.91c0,2.65-3.46,4.79-7.74,4.79s-7.74-2.14-7.74-4.79,3.46-4.78,7.74-4.78S128.76,407.27,128.76,409.91Z"/><path class="cls-5" d="M198.7,428.24c0,2.65-3.46,4.79-7.73,4.79s-7.74-2.14-7.74-4.79,3.46-4.78,7.74-4.78S198.7,425.59,198.7,428.24Z"/><path class="cls-5" d="M195.28,409.91c0,1.87-2.41,3.4-5.4,3.4s-5.4-1.53-5.4-3.4,2.41-3.39,5.4-3.39S195.28,408.05,195.28,409.91Z"/><ellipse class="cls-5" cx="146" cy="410.46" rx="5.4" ry="3.39"/><ellipse class="cls-5" cx="78.26" cy="418.81" rx="10.18" ry="6.28"/><path class="cls-5" d="M66,429.29c0,2.65-3.46,4.79-7.74,4.79s-7.74-2.14-7.74-4.79,3.47-4.78,7.74-4.78S66,426.68,66,429.29Z"/><path class="cls-5" d="M111.52,428.24c0,2.65-3.46,4.79-7.74,4.79S96,430.89,96,428.24s3.46-4.78,7.74-4.78S111.52,425.59,111.52,428.24Z"/><path class="cls-5" d="M108.09,409.91c0,1.87-2.41,3.4-5.4,3.4s-5.39-1.53-5.39-3.4,2.41-3.39,5.39-3.39S108.09,408.05,108.09,409.91Z"/><path class="cls-5" d="M64.21,410.46c0,1.86-2.41,3.39-5.4,3.39s-5.39-1.53-5.39-3.39,2.41-3.4,5.39-3.4S64.21,408.59,64.21,410.46Z"/><path class="cls-5" d="M442.68,418.81c0,3.46-4.55,6.27-10.18,6.27s-10.18-2.81-10.18-6.27,4.55-6.28,10.18-6.28S442.68,415.31,442.68,418.81Z"/><path class="cls-5" d="M420.25,429.29c0,2.65-3.46,4.79-7.74,4.79s-7.74-2.14-7.74-4.79,3.46-4.78,7.74-4.78S420.25,426.68,420.25,429.29Z"/><path class="cls-5" d="M395.81,409.91c0,2.65-3.46,4.79-7.73,4.79s-7.74-2.14-7.74-4.79,3.46-4.78,7.74-4.78S395.81,407.27,395.81,409.91Z"/><path class="cls-5" d="M465.76,428.24c0,2.65-3.46,4.79-7.74,4.79s-7.74-2.14-7.74-4.79,3.47-4.78,7.74-4.78S465.76,425.59,465.76,428.24Z"/><path class="cls-5" d="M462.33,409.91c0,1.87-2.41,3.4-5.39,3.4s-5.4-1.53-5.4-3.4,2.41-3.39,5.4-3.39S462.33,408.05,462.33,409.91Z"/><ellipse class="cls-5" cx="413.05" cy="410.46" rx="5.4" ry="3.39"/><path class="cls-6" d="M244.08,167.26A564.23,564.23,0,0,0,217.81,274.6c-8.14,58.85,8.89,105.48,8.89,105.48s-6.65-45.88-2.95-94.38,20.36-94,20.36-94,7.2,17.89,14.8,69.58c7.4,50.33,3.32,112.91,3.32,112.91s9.27-53.32,4.08-106.6S244.08,167.26,244.08,167.26Z"/><path class="cls-6" d="M176,375.3s3.7-48.13-8.14-85.86-25.89-61.8-25.89-61.8-15.55,42.55-15.55,76.25,4.45,49.62,4.45,49.62a409,409,0,0,1,2.58-62.92c3.46-27.32,10.35-44.8,10.35-44.8S173,295.71,176,375.3Z"/><path class="cls-6" d="M104.63,203.37a156.29,156.29,0,0,1,8.31,19.45c2.79,8.62,3.33,11.09,3.33,11.09s-4.45-8.62-5.57-10.28-3-4.45-3-4.45-3.19,14.63-8.62,36.08c-6.38,25.25-12.76,56.37-11.37,80.23s7.77,36.07,7.77,36.07-15-24.7-13-61.08C84.91,263.07,104.36,225.29,104.63,203.37Z"/><path class="cls-6" d="M64.11,310.51s-6.66-11.95-15.82-17.78S33,287.16,33,287.16s4.72,2.78,6.38,20.53-1.66,40.53,7.5,63.3,18.33,27.22,18.33,27.22-9.17-15.28-12.22-33-.85-44.42-2.21-53.58-2.51-12.22-2.51-12.22S58.81,302.47,64.11,310.51Z"/><path class="cls-6" d="M206,212.26s0-7.5-2.52-24.43a272.11,272.11,0,0,0-6.65-31.36,86.14,86.14,0,0,1-7.23,21.92C184,189.76,179,207.54,177.9,223.94s2.21,23,2.21,23a187.76,187.76,0,0,1,4.44-30.82c3.6-14.42,11.95-30,11.95-30S205.42,200,206,212.26Z"/><path class="cls-6" d="M276.76,194.21s.27-4.18,2.51-15.28A115,115,0,0,1,283.72,162s5.56,29.42,9.43,44.15,5,31.09,3.9,42.19a112.71,112.71,0,0,1-3.9,20s1.94-30.55-1.93-46.36-8.05-39.44-8.05-39.44Z"/><path class="cls-6" d="M332.28,223.63S314,264.42,304.79,309.42s-4.44,67.2-4.44,67.2,2.78-35.8,9.16-65.23,22.77-68,22.77-68,11.68,57.46,14.15,92.45.55,51.07.55,51.07,6.95-54.13,2.78-90.24S332.28,223.63,332.28,223.63Z"/><path class="cls-6" d="M363.37,254.72s0-7.5,3.9-20,6.38-18.6,6.38-18.6.55,26.37,3.9,49.41,7,50.81,4.18,74.39-8,33.6-8,33.6,7.5-41.91,4.17-72.18-7.77-61.63-7.77-61.63S364.49,248.61,363.37,254.72Z"/><path class="cls-6" d="M399.17,265.27a60,60,0,0,1,3.6-10.55,90.73,90.73,0,0,1,5.57-10.83s3.9,27.49,6.65,46.63,10.55,38.05,8.89,60-15.82,40-15.82,40,14.73-29.7,10.83-57.73S405,259.43,405,259.43Z"/><path class="cls-6" d="M436.37,309.7a57.77,57.77,0,0,1,12.49-15,33.59,33.59,0,0,1,18.32-8.05s-5.83,3.6-6.95,22.2.85,38-7,59.42-16.39,26.64-16.39,26.64,13-20.53,14.15-41.64-.85-38-.27-44.69,1.39-8.62,1.39-8.62S442.21,302.47,436.37,309.7Z"/><path class="cls-7" d="M406.67,56.22s-15.27,3.9-25.82,16.93a56.56,56.56,0,0,0-12,27.22s5.57-14.15,13.61-23.86,21.38-15,21.38-15a60.62,60.62,0,0,1-1.12,15c-1.42,7.4-3.6,8-5.57,9.43s-5.83,4.45-5.83,4.45a71,71,0,0,1,8.31-4.17,36.75,36.75,0,0,1,5-1.67S412,70.4,406.67,56.22Z"/><path class="cls-7" d="M381.15,105.09a43.57,43.57,0,0,1,26.37-1.67c15,3.6,26.64,14.15,26.64,14.15s-9.7,10.56-21.92,13-18.33,0-18.33,0,6.65,1.12,15.82-2.51a37.16,37.16,0,0,0,13.88-9.17A59.89,59.89,0,0,0,381.15,105.09Z"/></svg>