<svg id="Layer_1" data-name="Layer 1" xmlns="http://www.w3.org/2000/svg" viewBox="0 0 500 500"><defs><style>.cls-1{fill:#2c0218;}.cls-2{fill:#840001;}.cls-3{fill:#fa0001;}.cls-4{fill:#fafafa;}.cls-5{opacity:0.2;isolation:isolate;}.cls-6{fill:#a45700;}.cls-7{fill:#fff;}.cls-8{fill:none;stroke:#ffffd1;stroke-miterlimit:10;}</style></defs><g id="Target_Arrow" data-name="Target &amp; Arrow"><g id="target"><path id="white_BG" data-name="white BG" class="cls-1" d="M478,241.8l-.49-11,18.73-25.89-68.74,5.28-14.07,12.65-57.66,2.47a205.35,205.35,0,0,0-9.52-34.2l-.31-.84-.32-.83-.69-1.84c-.49-1.22-.94-2.4-1.46-3.58-.14-.31-.24-.63-.38-.94L394.44,156l17.93,4.45,63.11-27.56L446.32,118.7,441.11,109l5.63-31.38L387,111.82l-7.15,17.45L329.38,156a200.68,200.68,0,0,0-46.33-53.42C251.67,77.28,215.56,63.9,178.69,63.9a142,142,0,0,0-54.14,10.53h0l-29.4,12c-28.26,11.58-52,32.12-68.5,59.43-23,37.88-30.2,84.94-20.37,132.48,9.8,47.33,35.38,89.63,72,119.13,31.38,25.27,67.49,38.65,104.36,38.61a142.35,142.35,0,0,0,54.15-10.53l29.36-12h0c28.26-11.58,52-32.12,68.5-59.4,16.72-27.56,25.13-59.81,24.61-94,0-1.32,0-2.64-.11-4a4.22,4.22,0,0,0,0-.62l55.71-2.4,14.25,11.71L498,267Z"/><g id="target-2" data-name="target"><path class="cls-2" d="M260.74,403.54l-28.29,11.57C187,433.74,131.6,425.78,85.55,388.7,14,331.11-7.93,225.05,36.48,151.79,52.3,125.72,74.4,107.31,99.56,97L128,85.38c-3.58,1.49-7.12,3.16-10.56,5-.77.38-1.5.8-2.26,1.22s-1.5.83-2.22,1.28c0,0-.07,0-.11.07-.62.35-1.22.73-1.84,1.11a.75.75,0,0,1-.24.14l-2.19,1.36c-1.46.94-2.89,1.88-4.31,2.88-.7.49-1.39,1-2.12,1.5-1.39,1-2.78,2.08-4.14,3.16-.66.52-1.32,1-1.94,1.6-.21.17-.46.35-.67.55l-1.94,1.64c-1.5,1.28-3,2.64-4.41,4-.73.7-1.46,1.39-2.16,2.09-1.42,1.42-2.81,2.88-4.2,4.34-.6.66-1.22,1.32-1.81,2-2.09,2.37-4.14,4.84-6.08,7.41-.63.8-1.22,1.6-1.85,2.43a.78.78,0,0,1-.17.21c-.59.8-1.15,1.6-1.7,2.4-.77,1.07-1.5,2.15-2.19,3.23-.38.59-.77,1.15-1.11,1.74-.66,1-1.29,2-1.91,3C21.4,213,43.33,319.05,114.85,376.64a167.71,167.71,0,0,0,44.52,26c.52.21,1,.39,1.53.59,1.53.6,3.09,1.15,4.62,1.67,2,.7,4.1,1.36,6.19,1.95s4.1,1.15,6.18,1.67h0c2.08.52,4.13,1,6.22,1.39,3.4.69,6.81,1.25,10.18,1.67,1.46.2,2.92.34,4.38.48a133.62,133.62,0,0,0,13.38.66c.66,0,1.35,0,2,0s1.36,0,2.05,0h.24c.46,0,.94,0,1.39-.07s1.05,0,1.53-.07,1,0,1.46-.07l1.53-.1c1.39-.1,2.78-.24,4.14-.38.73-.07,1.46-.18,2.19-.25.17,0,.31,0,.48-.07l2.37-.31,1.28-.21c.52-.07,1-.17,1.57-.24,2.5-.42,5-.9,7.47-1.49.62-.14,1.25-.28,1.87-.46a123,123,0,0,0,15.16-4.72c.31-.11.62-.25.93-.38A3.27,3.27,0,0,0,260.74,403.54Z"/><path class="cls-3" d="M347.73,255.46c-.11-3.2-.35-6.43-.63-9.63,0-.38-.07-.76-.1-1.11l-.1-1.15c-.18-1.77-.39-3.51-.63-5.28-.07-.38-.1-.77-.17-1.15s-.11-.76-.18-1.11a197.6,197.6,0,0,0-10.39-40.84c-.87-2.36-1.81-4.72-2.78-7.08-1.25-3-2.61-6.05-4-9-.17-.34-.31-.69-.48-1s-.32-.69-.49-1c-.76-1.6-1.56-3.16-2.4-4.76-.17-.35-.34-.66-.52-1s-.35-.69-.52-1a191.5,191.5,0,0,0-48.51-58.87c-46-37.08-101.45-45-146.9-26.41h0a9.88,9.88,0,0,1-1,.38c-3.58,1.5-7.12,3.16-10.56,5-.77.38-1.5.8-2.26,1.21s-1.5.84-2.22,1.29c0,0-.07,0-.11.07-.62.35-1.22.73-1.84,1.11a1,1,0,0,1-.24.14l-2.19,1.35c-1.46.94-2.89,1.88-4.31,2.89-.7.49-1.39,1-2.12,1.49-1.39,1-2.78,2.09-4.14,3.17-.66.52-1.32,1-1.94,1.59-.21.18-.46.35-.67.56l-1.94,1.63c-1.5,1.29-3,2.64-4.41,4-.73.7-1.46,1.39-2.16,2.09-1.42,1.42-2.81,2.88-4.2,4.34-.6.66-1.22,1.32-1.81,2-2.09,2.36-4.14,4.83-6.08,7.4-.63.8-1.22,1.6-1.85,2.44a1,1,0,0,1-.17.2c-.59.8-1.15,1.6-1.7,2.4-.77,1.08-1.5,2.16-2.19,3.23-.38.59-.77,1.15-1.11,1.74-.66,1-1.29,2-1.91,3C21.4,213,43.33,319,114.85,376.6a167.75,167.75,0,0,0,44.52,26c.52.21,1,.38,1.53.59,1.53.59,3.09,1.11,4.62,1.67,2,.69,4.1,1.35,6.19,1.94s4.1,1.15,6.18,1.67h0c2.08.52,4.13,1,6.22,1.39,3.4.7,6.81,1.25,10.18,1.67,1.46.21,2.92.35,4.38.49a133.62,133.62,0,0,0,13.38.66c.66,0,1.35,0,2,0s1.36,0,2.05,0h.24c.46,0,.94,0,1.39-.07s1.05,0,1.53-.07,1,0,1.46-.07l1.53-.1c1.39-.11,2.78-.25,4.14-.39l2.19-.24c.17,0,.31,0,.48-.07l2.37-.31,1.28-.21c.52-.07,1-.17,1.57-.24,2.5-.42,5-.91,7.47-1.5.62-.14,1.25-.28,1.87-.45a123.09,123.09,0,0,0,15.16-4.73,9.09,9.09,0,0,0,.93-.38c.32-.1.6-.24.91-.35l1.11-.45c25.13-10.29,47.23-28.7,63-54.77,15.5-25.58,22.94-55.15,23-85.25C347.87,260.53,347.83,258,347.73,255.46Zm-44.41,75.48c-28.68,47.3-82.37,64.26-132.79,47.12-1.29-.45-2.58-.9-3.83-1.39s-2.53-1-3.82-1.49l-2.54-1.08c-.8-.35-1.6-.69-2.36-1.08s-1.6-.73-2.36-1.11l-3.13-1.56-3.13-1.67-1.56-.87c-1.67-.94-3.3-1.91-4.94-2.95q-2.09-1.31-4.17-2.71c-.45-.28-.9-.59-1.32-.91-.62-.41-1.22-.83-1.81-1.25-1.59-1.14-3.19-2.33-4.79-3.54-.8-.63-1.6-1.25-2.37-1.88-2.36-1.91-4.69-3.89-7-5.94-.76-.7-1.49-1.36-2.22-2.05-1-.94-2-1.88-2.88-2.82-49.77-49.55-63.15-130-28.81-186.58,37-61,115.44-71.56,175-23.64a159,159,0,0,1,40,48.34,10.65,10.65,0,0,1,.52,1c.17.32.34.66.52,1s.28.56.42.8c.66,1.32,1.32,2.61,1.94,3.93a10.9,10.9,0,0,1,.49,1c.17.35.35.69.48,1,.94,2,1.85,4.1,2.72,6.19,1,2.33,1.91,4.69,2.78,7.09h0c.17.45.34.94.52,1.42a164.28,164.28,0,0,1,7.85,31.77c.07.38.11.76.17,1.11s.11.76.18,1.15c.24,1.77.42,3.51.59,5.28l.1,1.14c0,.39.07.77.11,1.12.17,2.32.35,4.65.41,7,.11,2.53.14,5.07.11,7.61C322.12,286,316,310.12,303.32,330.94Z"/><path class="cls-4" d="M322.29,253.89c-.07-2.33-.24-4.65-.42-6.95,0-.38-.07-.76-.1-1.11l-.11-1.15c-.17-1.77-.38-3.51-.59-5.28,0-.38-.1-.76-.17-1.15a9.54,9.54,0,0,0-.17-1.11,163.31,163.31,0,0,0-7.86-31.76c-.17-.45-.35-.94-.52-1.43-.87-2.36-1.77-4.72-2.78-7.09-.87-2.08-1.77-4.13-2.71-6.18h0c-.17-.35-.31-.7-.49-1.05s-.31-.69-.48-1c-.63-1.32-1.29-2.64-1.95-3.93a6.74,6.74,0,0,0-.45-.79c-.17-.35-.35-.66-.52-1s-.35-.7-.52-1a158.91,158.91,0,0,0-40-48.34c-59.5-47.93-138-37.29-175,23.63-34.34,56.61-21,137,28.81,186.59a155.32,155.32,0,0,0,12.06,10.81,145.39,145.39,0,0,0,19.39,13.2A126.11,126.11,0,0,0,160.31,374c.83.38,1.7.73,2.53,1.08,2.54,1,5.11,2,7.69,2.88,50.42,17.14,104.08.18,132.79-47.12,12.65-20.82,18.8-44.9,19.07-69.47C322.43,259,322.39,256.43,322.29,253.89Zm-40.56,59.67c-29.57,48.76-92.37,57.24-140,18.91s-62.28-109.19-32.7-158,92.37-57.24,140-18.91a127,127,0,0,1,31.52,37.81c.17.32.38.66.55,1s.35.66.52,1c.84,1.56,1.64,3.13,2.4,4.76.18.35.32.69.49,1s.31.7.49,1c.52,1.12,1,2.23,1.46,3.34,1,2.33,1.91,4.69,2.78,7.09a131.8,131.8,0,0,1,6.39,25.51c.07.38.1.76.17,1.15s.11.76.18,1.14c.21,1.77.41,3.51.59,5.28,0,.39.07.77.07,1.12s.07.76.07,1.14c.1,1.43.17,2.89.24,4.31.1,2.54.1,5.08,0,7.61C296.47,278.88,291.53,297.44,281.73,313.56Z"/><path class="cls-3" d="M297,252.29c-.07-1.42-.14-2.88-.25-4.31,0-.38,0-.76-.07-1.14s-.07-.77-.07-1.11c-.17-1.78-.34-3.51-.59-5.29a11.2,11.2,0,0,0-.17-1.14c0-.39-.11-.77-.18-1.15a131.08,131.08,0,0,0-6.39-25.51c-.83-2.4-1.77-4.73-2.78-7.09L285,202.21c-.17-.34-.31-.69-.49-1s-.31-.69-.48-1c-.77-1.6-1.57-3.16-2.4-4.76-.17-.35-.35-.7-.52-1a10.91,10.91,0,0,0-.56-1A127.19,127.19,0,0,0,249,155.54c-47.61-38.33-110.37-29.85-139.95,18.91s-14.91,119.62,32.7,158,110.41,29.85,140-18.91c9.8-16.12,14.73-34.68,15.22-53.66C297.06,257.37,297,254.83,297,252.29Zm-36.81,43.9c-22.17,36.56-69.26,42.92-105,14.18s-46.7-81.88-24.5-118.44,69.27-42.92,105-14.18a95.32,95.32,0,0,1,23,27.28,9.75,9.75,0,0,1,.56,1c.17.31.35.66.52,1,.83,1.56,1.63,3.16,2.4,4.76.17.34.31.69.48,1s.32.69.46,1c.07.18.14.31.2.49,1,2.33,1.95,4.69,2.79,7.09a96.9,96.9,0,0,1,4.41,17.86c.07.38.1.77.17,1.11s.11.77.18,1.15c.2,1.77.38,3.51.52,5.28,0,.38.07.77.07,1.11s0,.77.07,1.15c0,.56,0,1.08.07,1.63.07,2.54,0,5.08-.11,7.58A81,81,0,0,1,260.15,296.19Z"/><path class="cls-4" d="M271.59,250.73c0-.56,0-1.08-.07-1.63,0-.39,0-.77-.07-1.15s0-.77-.07-1.11c-.11-1.77-.32-3.51-.52-5.28-.07-.39-.11-.77-.18-1.15s-.1-.77-.17-1.11a101,101,0,0,0-4.41-17.87c-.84-2.39-1.74-4.76-2.79-7.09-.06-.17-.13-.31-.2-.48-.14-.35-.32-.7-.46-1.05s-.31-.69-.48-1c-.77-1.6-1.53-3.2-2.4-4.76-.17-.35-.35-.66-.52-1s-.38-.66-.56-1a95.49,95.49,0,0,0-23-27.29c-35.69-28.74-82.81-22.38-105,14.18s-11.19,89.7,24.5,118.44,82.79,22.38,105-14.18a80.92,80.92,0,0,0,11.33-37.88C271.62,255.77,271.66,253.27,271.59,250.73Zm-33,28.08c-14.8,24.4-46.19,28.64-70,9.45s-31.14-54.59-16.37-79c.52-.87,1.08-1.74,1.67-2.57s1.18-1.64,1.81-2.4c.48-.59.93-1.18,1.46-1.74a45.36,45.36,0,0,1,7.26-6.64c.59-.41,1.21-.86,1.81-1.25,12.75-8.23,29.12-9.21,44.2-2.22,1,.45,2,1,3,1.49s2,1.12,3,1.74l1,.63c1.63,1.07,3.23,2.22,4.79,3.47,1,.77,1.91,1.6,2.82,2.4a64.26,64.26,0,0,1,11.71,14.35c.21.32.38.66.59,1s.38.66.56,1a45.89,45.89,0,0,1,2.25,4.49l.11.28c.17.34.31.69.45,1s.31.69.45,1c.66,1.56,1.22,3.13,1.74,4.73a65.37,65.37,0,0,1,2.47,10.18c.07.38.1.76.17,1.15a11.08,11.08,0,0,1,.14,1.14c.24,1.78.38,3.51.45,5.29a10.86,10.86,0,0,1,0,1.14v.11c0,.34,0,.69,0,1a56.66,56.66,0,0,1-.35,6.53A52.87,52.87,0,0,1,238.57,278.81Z"/><path class="cls-3" d="M246.18,249.13V249c0-.39,0-.77,0-1.15-.07-1.77-.21-3.54-.45-5.28,0-.38-.07-.77-.14-1.15s-.11-.76-.18-1.15a63.45,63.45,0,0,0-2.47-10.18c-.52-1.6-1.07-3.16-1.73-4.72-.14-.35-.32-.7-.45-1.05s-.32-.69-.46-1c0-.1-.07-.17-.1-.28-.7-1.53-1.46-3-2.26-4.48-.17-.35-.38-.66-.56-1s-.38-.66-.59-1h0a64.31,64.31,0,0,0-11.71-14.36c-.9-.83-1.84-1.63-2.81-2.43a57,57,0,0,0-4.8-3.47l-1-.63c-1-.62-2-1.18-3-1.74s-2-1-3-1.49c-15.09-7-31.46-6-44.21,2.22-.63.39-1.22.8-1.81,1.25a42.8,42.8,0,0,0-7.26,6.64c-.49.56-1,1.15-1.46,1.74-.63.76-1.22,1.56-1.81,2.4s-1.11,1.7-1.66,2.57c-14.81,24.36-7.44,59.81,16.36,79s55.19,14.91,70-9.45a53.5,53.5,0,0,0,7.29-22.1,57,57,0,0,0,.35-6.54C246.22,249.83,246.18,249.48,246.18,249.13ZM217,261.43c-7.4,12.2-23.08,14.32-35,4.73s-15.57-27.28-8.16-39.48,23.11-14.32,35-4.73a32.22,32.22,0,0,1,5.91,6.33c.24.31.45.63.66.94s.42.62.63,1c.34.56.66,1.11.93,1.67.53,1,1,2,1.46,3.09.14.35.28.73.42,1.08s.24.73.38,1.08c.21.59.39,1.21.56,1.84.21.83.42,1.67.56,2.5.07.38.13.77.2,1.11s.11.77.14,1.15a29.88,29.88,0,0,1,.18,3.89c0,.49,0,.94,0,1.43s0,.76-.07,1.14a10.94,10.94,0,0,1-.14,1.15,27.57,27.57,0,0,1-.8,3.82A28.49,28.49,0,0,1,217,261.43Z"/><path class="cls-4" d="M173.83,226.68c7.4-12.2,23.07-14.32,35-4.73s15.57,27.29,8.17,39.48-23.08,14.32-35,4.73S166.42,238.88,173.83,226.68Z"/></g><g id="arrow"><path class="cls-5" d="M347.87,263.07l-25.48-1.6L297,259.87l-25.48-1.6-25.61-1.6L219.73,255l-21.68-1.36.1-1.49.14-2.26.11-1.91.07-1.32,0-.56.9.07h.11l.62,0h0l1.39.1,19.19,1.22,13.55.83,10.81.66h0l1,.07,9.73.63,15.64,1,25.37,1.6,25.37,1.56,25.43,1.6C347.83,258,347.87,260.53,347.87,263.07Z"/><polygon class="cls-6" points="473.85 254.9 461.79 239.78 466.41 239.57 466.1 232.03 462.41 232.17 472.56 218.17 432.35 221.26 418.1 234.08 196.83 243.57 197.18 251.15 418.87 241.63 433.5 253.65 473.85 254.9"/><path class="cls-7" d="M464.08,240.83l3.55-.14-.46-9.84-2.46.11,10.21-14.08-43.09,3.3L417.62,233l-71.7,3.09-25.19,1.08-25.13,1.08-25.13,1.08-25.12,1.07-25.13,1.08-8.13.35h0l-2,.1-2.64.11-2.64.1-6.78.28-1.25.07-.93,0h-.21l.1,2.19h0l.11,2.64.2,5,2.05-.11,22.42-.93,25.68-1.12,9.73-.41,15.57-.66,25.2-1.08,25.16-1.08,25.23-1.08,71.38-3.05,14.56,12,43.2,1.39Zm-217.93,7.08-11.78.49-13.63.59-22.48,1-.07-1.78-.07-1.25-.07-1.25,0-1,.87,0,1.22-.07,2.64-.11h0l2.54-.1h.1l15.15-.66,25.13-1.08,25.13-1.07,25.12-1.08L321,239.4l25.19-1.08,71.91-3.09.42,0,14.24-12.83,37.4-2.88-10.08,13.9,4.86-.21.25,5.32-5.74.24,11.89,14.94-37.46-1.18-14.67-12-72.39,3.09-25.2,1.08-25.12,1.08-25.16,1.07Z"/><path class="cls-5" d="M332.82,188.14c1,2.33,1.91,4.69,2.78,7.09L312.42,204h0l-23.14,8.72-23.15,8.72L243,230.16l-23.22,8.75-7.54,2.85h0l-3.4,1.29h0l-3,1.15h0l-.38.14h0l-5.11,1.94h0l-.56.21-.1-.24-.14-.07-.42-1.08-.21-.49-.45-1.11-.42-1.11-.86-2.26h0l-.28-.69,5.63-2.12,14.39-5.43,23.24-8.75,2.09-.77,0,0,8.48-3.2h0l8.51-3.2h0l4.07-1.53,23.14-8.72L309.64,197Z"/><polygon class="cls-6" points="448.34 132.36 430.86 123.88 434.96 121.69 431.38 115.02 428.11 116.72 431.17 99.76 396.24 119.78 388.98 137.44 193.6 240.72 197.22 247.39 392.98 143.9 411.4 148.49 448.34 132.36"/><path class="cls-7" d="M433.39,123.81l3.13-1.63-4.69-8.69-2.19,1.15,3.06-17.07L395.31,119l-7.23,17.62-63.7,33.67-21.93,11.57-21.9,11.58L258.66,205l-21.9,11.57h0l-22,11.64-21.65,11.47-1,.52,3.82,7.09.87,1.64.35-.18,1.11-.59.21-.1,3.2-1.7,3.86-2,.27-.14h0l2.09-1.08h0l2.33-1.25,9-4.76,22-11.65,18.07-9.55h0l3.83-2,21.89-11.57L307,190.75h0l21.9-11.58,64.33-34,18.38,4.55,39.55-17.27ZM242.25,222.3l-1.94,1-21.93,11.58-13.55,7.16-2.33,1.25h0l-2.37,1.25-1,.55-1,.56-.38.21-.8-1.5-1.05-1.91-.69-1.28,2-1.08h0l5.35-2.81L216,230.23l21.93-11.58,21.89-11.57,21.89-11.57,21.86-11.57h0l21.9-11.58,64.08-33.88.35-.21,7.26-17.65L429.57,102l-3,16.86,4.31-2.26,2.5,4.69L428.29,124l17.27,8.37-34.3,15-18.46-4.59-65,34.37L305.89,188.7,284,200.27l-21.9,11.57-19.88,10.5Z"/><polyline class="cls-8" points="419.56 106.44 414.87 124.27 417.2 128.3 435.03 136.91"/><polyline class="cls-8" points="405.11 115.23 400.41 133.06 402.78 137.05 420.57 145.71"/><polyline class="cls-8" points="460.54 220.36 447.57 233.49 447.61 238.15 458.76 254.48"/><polyline class="cls-8" points="443.65 220.77 430.68 233.91 430.72 238.57 442.57 253.3"/></g></g></g></svg>